<?xml version="1.0" standalone="no"?>
<!DOCTYPE svg PUBLIC "-//W3C//DTD SVG 20010904//EN"
 "http://www.w3.org/TR/2001/REC-SVG-20010904/DTD/svg10.dtd">
<svg version="1.0" xmlns="http://www.w3.org/2000/svg"
 width="700.000000pt" height="700.000000pt" viewBox="0 0 700.000000 700.000000"
 preserveAspectRatio="xMidYMid meet">
<metadata>
Created by potrace 1.14, written by Peter Selinger 2001-2017
</metadata>
<g transform="translate(0.000000,700.000000) scale(0.100000,-0.100000)"
fill="#000000" stroke="none">
<path d="M5834 6845 c-87 -37 -119 -162 -64 -250 38 -62 55 -65 371 -65 l281
0 -204 -199 c-111 -109 -258 -252 -325 -317 -163 -158 -191 -220 -139 -303 48
-76 115 -112 183 -97 33 8 73 44 481 435 101 96 191 181 200 187 16 11 17 -6
17 -251 0 -239 2 -266 20 -298 26 -48 80 -77 145 -77 67 0 114 23 142 69 l23
36 1 525 c1 510 1 526 -19 553 -46 66 -25 64 -581 64 -379 0 -510 -3 -532 -12z"/>
<path d="M3128 6436 c-1 -2 -41 -6 -87 -10 -46 -4 -94 -9 -105 -11 -12 -3 -39
-7 -61 -10 -85 -10 -124 -18 -243 -46 -286 -67 -545 -167 -795 -307 -89 -49
-319 -199 -352 -229 -11 -10 -38 -31 -60 -48 -22 -16 -80 -66 -130 -110 -340
-303 -618 -693 -789 -1107 -91 -221 -174 -526 -201 -743 -4 -27 -8 -61 -10
-74 -16 -101 -21 -355 -11 -526 6 -116 10 -151 20 -225 3 -19 8 -55 11 -80 3
-25 8 -53 11 -62 3 -9 7 -27 9 -40 20 -105 31 -150 67 -268 234 -787 765
-1435 1498 -1828 298 -159 703 -289 1015 -326 22 -2 65 -7 95 -11 215 -25 559
-18 750 15 30 5 73 12 95 15 84 14 104 18 230 51 230 60 391 118 580 211 373
183 762 488 1000 784 33 40 65 79 70 85 13 14 33 41 98 134 158 224 309 528
393 790 50 153 74 252 103 420 111 623 18 1278 -262 1850 -43 88 -76 147 -172
308 -24 41 -54 83 -125 177 -450 598 -1099 1012 -1815 1159 -115 24 -137 27
-250 42 -27 3 -61 8 -75 11 -29 5 -497 13 -502 9z m492 -341 c432 -61 714
-154 1065 -350 265 -149 600 -440 783 -680 34 -45 135 -188 149 -210 74 -122
100 -168 142 -252 116 -234 221 -553 246 -748 2 -16 7 -46 10 -65 35 -217 38
-550 5 -750 -5 -30 -11 -68 -14 -85 -14 -88 -18 -114 -28 -150 -5 -22 -12 -49
-14 -60 -10 -53 -72 -241 -111 -339 -170 -424 -440 -796 -796 -1092 -82 -68
-298 -224 -311 -224 -2 0 -33 -18 -69 -39 -188 -115 -460 -224 -709 -285 -206
-51 -346 -67 -593 -71 -246 -4 -349 4 -549 41 -166 31 -409 102 -513 150 -17
7 -34 14 -38 14 -10 0 -254 120 -295 145 -335 205 -557 395 -776 665 -147 181
-322 477 -393 665 -13 33 -29 74 -36 90 -23 55 -85 260 -101 337 -4 20 -11 57
-29 147 -6 33 -22 162 -30 241 -6 66 -7 364 -1 410 2 14 7 57 10 95 18 186 72
420 141 611 168 466 469 888 855 1199 343 276 737 462 1165 549 133 27 177 34
280 42 39 4 72 8 73 9 6 6 436 -3 482 -10z"/>
<path d="M4908 5050 c-24 -16 -93 -77 -155 -137 -61 -59 -211 -205 -334 -323
-122 -118 -250 -242 -284 -275 -34 -33 -162 -157 -285 -275 -282 -273 -307
-296 -601 -581 -134 -130 -271 -262 -304 -293 -33 -32 -170 -164 -304 -294
-415 -402 -496 -480 -835 -807 -114 -109 -209 -208 -211 -220 -18 -77 -8 -110
46 -164 37 -37 86 -61 121 -61 39 0 83 31 195 139 290 280 593 572 648 626 34
33 123 119 197 190 74 72 242 234 374 361 131 127 273 264 314 304 41 40 169
163 284 274 114 110 248 239 296 286 240 233 570 552 860 830 105 102 198 197
206 212 17 33 18 95 1 124 -61 105 -148 137 -229 84z"/>
<path d="M760 1065 c-22 -11 -151 -128 -286 -260 -136 -132 -288 -281 -339
-330 -99 -97 -115 -127 -100 -196 10 -44 95 -126 139 -135 72 -13 76 -11 362
263 82 78 172 163 199 189 144 135 238 229 252 250 37 57 24 120 -39 190 -52
57 -114 67 -188 29z"/>
</g>
</svg>
